# xmcd
#
# Track frame offsets: 
#        150
#        6175
#        26450
#        45495
#        68505
#        82860
#        106992
#        130422
#        134025
#        151820
#        168280
#        192117
#        207405
#        225417
#        243750
#
# Disc length: 3335 seconds
#
# Revision: 0
# Processed by: cddbd v1.5.2PL0 Copyright (c) Steve Scherf et al.
# Submitted via: ExactAudioCopy v0.99pb3
#
DISCID=b30d050f
DTITLE=The Rudimentals - The Best Days Of Our Lives
DYEAR=2001
DGENRE=Hip-Hop
TTITLE0=All Systems Go (Intro)
TTITLE1=Carbon Monoxide
TTITLE2=Naked Women With Guns
TTITLE3=Wanderer's Tune
TTITLE4=Places I Couldn't Pronounce
TTITLE5=Havenots United
TTITLE6=Humanity On Hold
TTITLE7=Mid 8
TTITLE8=Pressure Drop
TTITLE9=Shitty Revisited
TTITLE10=International Silver
TTITLE11=1999
TTITLE12=Something In Your Shoe
TTITLE13=Run Mr. Money Man
TTITLE14=Friends and Lovers
EXTD=
EXTT0=
EXTT1=
EXTT2=
EXTT3=
EXTT4=
EXTT5=
EXTT6=
EXTT7=
EXTT8=
EXTT9=
EXTT10=
EXTT11=
EXTT12=
EXTT13=
EXTT14=
PLAYORDER=
